<mxfile host="app.diagrams.net" modified="2020-10-14T06:45:51.509Z" agent="5.0 (Windows NT 10.0; WOW64) AppleWebKit/537.36 (KHTML, like Gecko) Chrome/78.0.3904.108 Safari/537.36" etag="WcMeXXES2N6UvwdRZ4ZE" version="13.7.9" type="github">
  <diagram id="CBsvdnUBKDRjt6bONnzu" name="第 1 页">
    <mxGraphModel dx="1382" dy="1305" grid="0" gridSize="10" guides="1" tooltips="1" connect="1" arrows="1" fold="1" page="0" pageScale="1" pageWidth="827" pageHeight="1169" math="0" shadow="0">
      <root>
        <mxCell id="0" />
        <mxCell id="1" parent="0" />
        <mxCell id="tD1dwajd7qNLst6AB-RN-1" value="鹊桥订单" style="rounded=1;whiteSpace=wrap;html=1;fillColor=#d5e8d4;strokeColor=#82b366;" vertex="1" parent="1">
          <mxGeometry x="146" y="-684" width="120" height="60" as="geometry" />
        </mxCell>
        <mxCell id="tD1dwajd7qNLst6AB-RN-2" value="" style="rounded=0;whiteSpace=wrap;html=1;glass=0;fillColor=#d5e8d4;strokeColor=#82b366;" vertex="1" parent="1">
          <mxGeometry x="-181" y="-601" width="789" height="371" as="geometry" />
        </mxCell>
        <mxCell id="tD1dwajd7qNLst6AB-RN-3" value="" style="rounded=0;whiteSpace=wrap;html=1;glass=0;fillColor=#dae8fc;strokeColor=#6c8ebf;" vertex="1" parent="1">
          <mxGeometry x="-108" y="-542" width="211" height="270" as="geometry" />
        </mxCell>
        <mxCell id="tD1dwajd7qNLst6AB-RN-4" value="前台（APP，官网，微信，小程序等）" style="text;html=1;strokeColor=none;fillColor=none;align=center;verticalAlign=middle;whiteSpace=wrap;rounded=0;glass=0;" vertex="1" parent="1">
          <mxGeometry x="-113" y="-574" width="244" height="25" as="geometry" />
        </mxCell>
        <mxCell id="tD1dwajd7qNLst6AB-RN-5" value="下单" style="ellipse;whiteSpace=wrap;html=1;rounded=0;glass=0;" vertex="1" parent="1">
          <mxGeometry x="-81" y="-519" width="80" height="41" as="geometry" />
        </mxCell>
        <mxCell id="tD1dwajd7qNLst6AB-RN-6" value="支付" style="ellipse;whiteSpace=wrap;html=1;rounded=0;glass=0;" vertex="1" parent="1">
          <mxGeometry x="-79" y="-455" width="80" height="41" as="geometry" />
        </mxCell>
        <mxCell id="tD1dwajd7qNLst6AB-RN-7" value="订单列表" style="ellipse;whiteSpace=wrap;html=1;rounded=0;glass=0;" vertex="1" parent="1">
          <mxGeometry x="-79" y="-394" width="80" height="41" as="geometry" />
        </mxCell>
        <mxCell id="tD1dwajd7qNLst6AB-RN-8" value="详情" style="ellipse;whiteSpace=wrap;html=1;rounded=0;glass=0;" vertex="1" parent="1">
          <mxGeometry x="-81" y="-333" width="80" height="41" as="geometry" />
        </mxCell>
        <mxCell id="tD1dwajd7qNLst6AB-RN-9" value="" style="rounded=0;whiteSpace=wrap;html=1;glass=0;fillColor=#dae8fc;strokeColor=#6c8ebf;" vertex="1" parent="1">
          <mxGeometry x="131" y="-542" width="285" height="282" as="geometry" />
        </mxCell>
        <mxCell id="tD1dwajd7qNLst6AB-RN-10" value="鹊桥" style="text;html=1;strokeColor=none;fillColor=none;align=center;verticalAlign=middle;whiteSpace=wrap;rounded=0;glass=0;" vertex="1" parent="1">
          <mxGeometry x="153" y="-567" width="244" height="25" as="geometry" />
        </mxCell>
        <mxCell id="tD1dwajd7qNLst6AB-RN-11" value="录入订单" style="ellipse;whiteSpace=wrap;html=1;rounded=0;glass=0;" vertex="1" parent="1">
          <mxGeometry x="153" y="-523" width="61" height="40" as="geometry" />
        </mxCell>
        <mxCell id="tD1dwajd7qNLst6AB-RN-14" value="分配订单" style="ellipse;whiteSpace=wrap;html=1;rounded=0;glass=0;" vertex="1" parent="1">
          <mxGeometry x="229" y="-522" width="61" height="40" as="geometry" />
        </mxCell>
        <mxCell id="tD1dwajd7qNLst6AB-RN-15" value="跟进订单" style="ellipse;whiteSpace=wrap;html=1;rounded=0;glass=0;" vertex="1" parent="1">
          <mxGeometry x="153" y="-472" width="61" height="40" as="geometry" />
        </mxCell>
        <mxCell id="tD1dwajd7qNLst6AB-RN-16" value="绑定客户" style="ellipse;whiteSpace=wrap;html=1;rounded=0;glass=0;" vertex="1" parent="1">
          <mxGeometry x="227" y="-472" width="61" height="40" as="geometry" />
        </mxCell>
        <mxCell id="tD1dwajd7qNLst6AB-RN-17" value="编辑子订单" style="ellipse;whiteSpace=wrap;html=1;rounded=0;glass=0;" vertex="1" parent="1">
          <mxGeometry x="228" y="-416.5" width="61" height="40" as="geometry" />
        </mxCell>
        <mxCell id="tD1dwajd7qNLst6AB-RN-18" value="云上园区退款" style="ellipse;whiteSpace=wrap;html=1;rounded=0;glass=0;" vertex="1" parent="1">
          <mxGeometry x="228" y="-355" width="61" height="40" as="geometry" />
        </mxCell>
        <mxCell id="tD1dwajd7qNLst6AB-RN-19" value="订单管理池" style="ellipse;whiteSpace=wrap;html=1;rounded=0;glass=0;" vertex="1" parent="1">
          <mxGeometry x="153" y="-356" width="61" height="40" as="geometry" />
        </mxCell>
        <mxCell id="tD1dwajd7qNLst6AB-RN-21" value="支付对接渠道&lt;br&gt;&lt;br&gt;1.支付宝pc&lt;br&gt;2.支付宝app&lt;br&gt;3.支付宝小程序&lt;br&gt;4.支付宝网页&lt;br&gt;5.微信公众号&lt;br&gt;6.微信小程序&lt;br&gt;7.招商银行" style="rounded=0;whiteSpace=wrap;html=1;glass=0;align=left;" vertex="1" parent="1">
          <mxGeometry x="12" y="-510" width="81" height="206" as="geometry" />
        </mxCell>
        <mxCell id="tD1dwajd7qNLst6AB-RN-22" value="提炼线索" style="ellipse;whiteSpace=wrap;html=1;rounded=0;glass=0;" vertex="1" parent="1">
          <mxGeometry x="155" y="-417" width="61" height="40" as="geometry" />
        </mxCell>
        <mxCell id="tD1dwajd7qNLst6AB-RN-23" value="对接阿里云工商注册" style="ellipse;whiteSpace=wrap;html=1;rounded=0;glass=0;" vertex="1" parent="1">
          <mxGeometry x="306" y="-519" width="67" height="44" as="geometry" />
        </mxCell>
        <mxCell id="tD1dwajd7qNLst6AB-RN-24" value="阿里云工商注册退款" style="ellipse;whiteSpace=wrap;html=1;rounded=0;glass=0;" vertex="1" parent="1">
          <mxGeometry x="306" y="-470" width="67" height="44" as="geometry" />
        </mxCell>
        <mxCell id="tD1dwajd7qNLst6AB-RN-25" value="网上云谷自动跟进" style="ellipse;whiteSpace=wrap;html=1;rounded=0;glass=0;" vertex="1" parent="1">
          <mxGeometry x="306" y="-413" width="67" height="44" as="geometry" />
        </mxCell>
        <mxCell id="tD1dwajd7qNLst6AB-RN-26" value="销战" style="ellipse;whiteSpace=wrap;html=1;rounded=0;glass=0;" vertex="1" parent="1">
          <mxGeometry x="306" y="-356" width="67" height="44" as="geometry" />
        </mxCell>
        <mxCell id="tD1dwajd7qNLst6AB-RN-27" value="星盘-数据订正" style="text;html=1;strokeColor=none;fillColor=none;align=center;verticalAlign=middle;whiteSpace=wrap;rounded=0;glass=0;" vertex="1" parent="1">
          <mxGeometry x="368" y="-565" width="244" height="25" as="geometry" />
        </mxCell>
        <mxCell id="tD1dwajd7qNLst6AB-RN-28" value="" style="rounded=0;whiteSpace=wrap;html=1;glass=0;fillColor=#dae8fc;strokeColor=#6c8ebf;" vertex="1" parent="1">
          <mxGeometry x="439" y="-539.5" width="126" height="282" as="geometry" />
        </mxCell>
        <mxCell id="tD1dwajd7qNLst6AB-RN-29" value="删除订单" style="ellipse;whiteSpace=wrap;html=1;rounded=0;glass=0;" vertex="1" parent="1">
          <mxGeometry x="466" y="-491" width="61" height="40" as="geometry" />
        </mxCell>
        <mxCell id="tD1dwajd7qNLst6AB-RN-30" value="退款" style="ellipse;whiteSpace=wrap;html=1;rounded=0;glass=0;" vertex="1" parent="1">
          <mxGeometry x="466" y="-421" width="61" height="40" as="geometry" />
        </mxCell>
        <mxCell id="tD1dwajd7qNLst6AB-RN-32" value="创建合同" style="ellipse;whiteSpace=wrap;html=1;rounded=0;glass=0;" vertex="1" parent="1">
          <mxGeometry x="155" y="-307" width="61" height="40" as="geometry" />
        </mxCell>
      </root>
    </mxGraphModel>
  </diagram>
</mxfile>
